<?xml version="1.0" encoding="utf-8"?>
<!-- Generator: Adobe Illustrator 15.0.2, SVG Export Plug-In . SVG Version: 6.00 Build 0)  -->
<!DOCTYPE svg PUBLIC "-//W3C//DTD SVG 1.1//EN" "http://www.w3.org/Graphics/SVG/1.1/DTD/svg11.dtd">
<svg version="1.1" id="レイヤー_1" xmlns="http://www.w3.org/2000/svg" xmlns:xlink="http://www.w3.org/1999/xlink" x="0px"
	 y="0px" width="64px" height="64px" viewBox="0 0 64 64" enable-background="new 0 0 64 64" xml:space="preserve">
<path d="M31.392,33.312L8.752,63.518c-0.547,0.725-1.227,0.623-1.501-0.245L0.082,41.765c-0.282-0.868,0.187-1.743,1.07-1.961
	l29.643-7.412C31.673,32.179,31.944,32.6,31.392,33.312z M30.794,31.608L1.152,24.194c-0.883-0.226-1.352-1.101-1.07-1.959
	L7.258,0.726c0.292-0.867,0.97-0.969,1.502-0.243l22.632,30.204C31.944,31.399,31.673,31.82,30.794,31.608z M56.747,63.272
	c-0.272,0.868-0.954,0.97-1.5,0.245L32.608,33.312c-0.554-0.712-0.282-1.132,0.595-0.919l29.645,7.412
	c0.884,0.218,1.353,1.093,1.069,1.961L56.747,63.272z M62.848,24.194l-29.645,7.414c-0.877,0.212-1.149-0.209-0.595-0.921
	L55.256,0.483c0.54-0.726,1.227-0.624,1.507,0.243l7.154,21.509C64.2,23.093,63.731,23.968,62.848,24.194z"/>
</svg>
